<?xml version="1.0" encoding="UTF-8"?>
<svg width="714px" height="642px" viewBox="0 0 714 642" version="1.1" xmlns="http://www.w3.org/2000/svg" xmlns:xlink="http://www.w3.org/1999/xlink">
    <title>appIcon_original</title>
    <defs>
        <linearGradient x1="97.8169903%" y1="26.3532477%" x2="5.18295338%" y2="73.7055292%" id="linearGradient-1">
            <stop stop-color="#F6F2F0" offset="0%"></stop>
            <stop stop-color="#FFFFFF" offset="100%"></stop>
        </linearGradient>
    </defs>
    <g id="Page-1" stroke="none" stroke-width="1" fill="none" fill-rule="evenodd">
        <g id="appIcon_original" transform="translate(0.000000, 10.000000)">
            <path d="M9,131 L709,131 L709,529.427653 C709,584.488836 664.489244,629.19076 609.428567,629.426735 L109.428567,631.569592 C54.2005997,631.806283 9.23760965,587.227045 9.00091835,531.999078 C9.00030612,531.856223 9,531.713367 9,531.57051 L9,131 L9,131 Z" id="Background" fill="url(#linearGradient-1)" fill-rule="nonzero" transform="translate(359.000000, 381.500000) scale(-1, 1) translate(-359.000000, -381.500000) "></path>
            <path d="M14,42.2940356 L700,42.2940356 L700,78.5 C700,103.076671 680.076671,123 655.5,123 L58.5,123 C33.9233286,123 14,103.076671 14,78.5 L14,42.2940356 L14,42.2940356 Z" id="Approse-background" fill="#E3817F" fill-rule="nonzero" transform="translate(357.000000, 82.647018) scale(-1, -1) translate(-357.000000, -82.647018) "></path>
            <rect id="Rectangle" stroke="#000000" stroke-width="20" x="10" y="37" width="694" height="585" rx="87"></rect>
            <line x1="14" y1="131" x2="700" y2="131" id="Line" stroke="#000000" stroke-width="20" stroke-linecap="square"></line>
            <g id="iconfinder_cloudy_2995001" transform="translate(160.000000, 195.000000)">
                <path d="M189.280542,89.9998999 C151.911384,90.0021151 117.776201,111.19514 101.199662,144.685622 C84.6231224,178.176104 88.4733223,218.169474 111.134543,247.882701 C150.265494,277.707238 205.421318,274.002502 240.21199,239.212758 C275.002662,204.423014 278.707497,149.268662 248.882164,110.138755 C231.773544,97.048136 210.822997,89.9692043 189.280542,89.9998999 Z" id="Path" fill="#F7AD1E" fill-rule="nonzero"></path>
                <line x1="177.5" y1="0" x2="177.5" y2="55" id="Path" stroke="#29292E" stroke-width="12" stroke-linecap="round" stroke-linejoin="round"></line>
                <line x1="52" y1="52" x2="91" y2="91" id="Path" stroke="#29292E" stroke-width="12" stroke-linecap="round" stroke-linejoin="round"></line>
                <line x1="0" y1="177.5" x2="55" y2="177.5" id="Path" stroke="#29292E" stroke-width="12" stroke-linecap="round" stroke-linejoin="round"></line>
                <line x1="301" y1="177.5" x2="356" y2="177.5" id="Path" stroke="#29292E" stroke-width="12" stroke-linecap="round" stroke-linejoin="round"></line>
                <line x1="265" y1="91" x2="304" y2="52" id="Path" stroke="#29292E" stroke-width="12" stroke-linecap="round" stroke-linejoin="round"></line>
                <path d="M81.8320173,165.14613 C81.2783082,169.400812 80.9999973,173.686854 80.9999973,177.977413 C80.9887355,226.27881 116.176316,267.384282 163.902418,274.82246 C211.62852,282.260637 257.656482,253.812718 272.344918,207.798778 C287.033355,161.784838 266.000716,111.9308 222.791738,90.3419928 C179.582759,68.7531853 127.086646,81.8695328 99.1101874,121.244285" id="Path" stroke="#29292E" stroke-width="12" stroke-linecap="round" stroke-linejoin="round"></path>
                <path d="M87.75,141 C87.58,141.336066 87.41,141.663934 87.25,142" id="Path" stroke="#29292E" stroke-width="12" stroke-linecap="round" stroke-linejoin="round"></path>
                <g id="cloud-2" transform="translate(50.000000, 159.000000)">
                    <path d="M263.872652,89.7806512 C262.455041,82.3402067 260.175491,75.0903028 257.08011,68.1775814 C253.081254,68.8087171 249.156172,69.8413301 245.364365,71.2597674 C242.514663,56.2951127 236.208455,42.2034219 226.948619,30.1084186 C197.288433,7.50642575 157.380704,3.67816858 123.965982,20.2295297 C90.5512598,36.7808908 69.40826,70.8494907 69.4060773,108.144186 C69.4060773,110.661767 69.5078729,113.160837 69.6929558,115.63214 C51.7330319,110.267485 32.3114236,116.269855 20.5080968,130.833028 C8.70477008,145.396201 6.85173944,165.642893 15.8153315,182.107395 C22.6002033,185.815932 30.2100644,187.754552 37.941989,187.744268 L266.519337,187.744268 C288.466175,187.744268 308.670826,175.788191 319.2381,156.549429 C329.805375,137.310666 329.057827,113.842598 317.287569,95.3156279 C301.342815,85.1765744 281.561505,83.119934 263.872652,89.7621395 L263.872652,89.7806512 Z" id="Path" fill="#B6C4CF" fill-rule="nonzero"></path>
                    <path d="M274.848066,76.6744186 C267.623337,76.6682969 260.456813,77.9664055 253.693094,80.5063256 C244.249713,30.7535646 198.498432,-3.63612631 148.090832,1.12867638 C97.6832311,5.89347906 59.1835242,48.2470352 59.2265193,98.888372 C59.2265193,101.405953 59.3221455,103.898853 59.5133978,106.36707 C42.135412,101.190683 23.3359659,106.643551 11.4231635,120.31587 C-0.489638945,133.988189 -3.32011502,153.359974 4.18261728,169.870185 C11.6853496,186.380397 28.1384403,196.985991 46.2707182,197 L274.848066,197 C308.069062,197 335,170.064201 335,136.837209 C335,103.610217 308.069062,76.6744186 274.848066,76.6744186 L274.848066,76.6744186 Z" id="Path"></path>
                </g>
                <path d="M115.72,220 C115.65,220.171171 115.57,220.333333 115.5,220.504505 C115.43,220.675676 115.35,220.828829 115.28,221" id="Path" stroke="#29292E" stroke-width="12" stroke-linecap="round" stroke-linejoin="round"></path>
                <path d="M384.909218,297 C386.627983,266.382809 363.738834,238.524591 333.420182,234.265774 C323.447954,232.860246 313.283235,233.974132 303.850026,237.506178 C297.889791,205.953899 276.128004,179.262227 247.186213,165.782145 C206.684339,145.710156 154.012497,161.449262 128,198.704652" id="Path" stroke="#29292E" stroke-width="12" stroke-linecap="round"></path>
                <path d="M366,338 C371.362459,333.125962 375.765914,327.367598 379,321" id="Path" stroke="#29292E" stroke-width="12" stroke-linecap="round"></path>
                <path d="M110.161689,244 C109.342398,250.559898 109.178254,257.185082 109.671688,263.777509 C87.9578511,257.488987 64.859372,267.668054 54.8470698,287.937693 C48.3843101,300.656905 48.3843101,315.698114 54.8470698,328.417326 C57.6206592,333.0404 60.3942487,338.588088 65.0168978,342.286547 C68.4945645,345.06787 72.2065526,347.542756 76.1112556,349.683465 C81.5309044,351.651441 87.0946889,353.197079 92.7527923,354.306539 C172.262357,355.231154 251.771921,355.231154 331.281485,354.306539 C335.904134,354.306539 341.451313,351.532695 346,350.460142" id="Path" stroke="#29292E" stroke-width="12" stroke-linecap="round"></path>
            </g>
            <line x1="356.5" y1="0.5" x2="357" y2="53" id="Line-2" stroke="#000000" stroke-width="20" stroke-linecap="round"></line>
            <line x1="155.5" y1="0.5" x2="156" y2="53" id="Line-2-Copy" stroke="#000000" stroke-width="20" stroke-linecap="round"></line>
            <line x1="557.5" y1="0.5" x2="558" y2="53" id="Line-2" stroke="#000000" stroke-width="20" stroke-linecap="round"></line>
        </g>
    </g>
</svg>